<svg width="12" height="20" viewBox="0 0 12 20" fill="none" xmlns="http://www.w3.org/2000/svg">
<path d="M11.668 9.75586C11.668 9.94206 11.6357 10.1139 11.5713 10.2715C11.4997 10.429 11.3923 10.5794 11.249 10.7227L2.88086 18.9082C2.63737 19.1445 2.34375 19.2627 2 19.2627C1.76367 19.2627 1.55241 19.2054 1.36621 19.0908C1.17285 18.9834 1.01888 18.8366 0.904297 18.6504C0.789714 18.4642 0.732422 18.2529 0.732422 18.0166C0.732422 17.68 0.864909 17.3792 1.12988 17.1143L8.6709 9.75586L1.12988 2.39746C0.864909 2.13249 0.732422 1.82812 0.732422 1.48437C0.732422 1.25521 0.789714 1.04753 0.904297 0.861328C1.01888 0.667969 1.17285 0.517578 1.36621 0.410156C1.55241 0.295573 1.76367 0.238281 2 0.238281C2.34375 0.238281 2.63737 0.360026 2.88086 0.603516L11.249 8.78906C11.3923 8.93229 11.4997 9.08268 11.5713 9.24023C11.6357 9.39779 11.668 9.56966 11.668 9.75586Z" fill="white"/>
</svg>
